<?xml version="1.0" standalone="no"?><!DOCTYPE svg PUBLIC "-//W3C//DTD SVG 1.1//EN" "http://www.w3.org/Graphics/SVG/1.1/DTD/svg11.dtd"><svg t="1653988454815" class="icon" viewBox="0 0 1024 1024" version="1.1" xmlns="http://www.w3.org/2000/svg" p-id="3523" xmlns:xlink="http://www.w3.org/1999/xlink" width="200" height="200"><defs><style type="text/css">@font-face { font-family: feedback-iconfont; src: url("//at.alicdn.com/t/font_1031158_u69w8yhxdu.woff2?t=1630033759944") format("woff2"), url("//at.alicdn.com/t/font_1031158_u69w8yhxdu.woff?t=1630033759944") format("woff"), url("//at.alicdn.com/t/font_1031158_u69w8yhxdu.ttf?t=1630033759944") format("truetype"); }
</style></defs><path d="M563.363941 572.337203c-0.662107-10.635221 5.985569-21.937638 19.948145-33.908274 13.962576-11.964496 29.591164-25.264407 46.879625-39.893592 17.288461-14.628162 33.242474-31.083949 47.872273-49.365314 14.630823-18.286482 22.606806-39.397289 23.936137-63.332421 1.330354-25.932626-1.329331-50.199309-7.977007-72.810283-6.647676-22.604834-17.620026-42.050722-32.910909-58.33971-15.297023-16.290011-35.079386-29.258371-59.347087-38.900985-24.267702-9.636474-52.694294-14.45727-85.274661-14.45727-40.563514 0-74.308452 7.148817-101.239931 21.441335-26.925339 14.293541-48.705279 31.581276-65.326516 51.864228-16.621237 20.276812-28.26081 41.222867-34.908486 62.829977-6.647676 21.60711-9.641996 39.727817-8.974772 54.358025 0.662107 17.282618 6.150328 29.92045 16.455454 37.897122 10.305126 7.976672 21.442235 12.135388 33.413373 12.466939 11.964998 0.331551 22.937348-2.989077 32.910909-9.973142 9.973561-6.984065 14.960341-17.121959 14.960341-30.416753 0-7.982812 2.493902-17.790178 7.480682-29.424146s11.805356-22.771633 20.450609-33.411971c8.643207-10.635221 19.115139-19.615757 31.416819-26.924209 12.30168-7.315616 26.098473-10.971889 41.39038-10.971889 29.921706 0 53.857842 7.480368 71.81455 22.440082 17.950567 14.959713 26.263233 33.742499 24.934925 56.348356 0 11.302417-3.325885 21.772886-9.973561 31.4155-6.652793 9.642614-15.131241 18.948561-25.43739 27.929096-10.304103 8.974395-21.276452 17.949814-32.910909 26.924209-11.639573 8.974395-22.606806 18.286482-32.917049 27.929096-10.304103 9.636474-18.949356 20.111037-25.927574 31.4155-6.984358 11.302417-10.806567 23.603581-11.474814 36.898375l0.998789 37.903262c0 9.973142 4.656239 19.444864 13.962576 28.4254 9.311454 8.975419 21.613134 13.796214 36.906064 14.458293 15.29293-0.662079 27.427804-5.64865 36.403599-14.959713 8.974772-9.30697 13.134686-19.947308 12.467463-31.911804L563.365987 572.337203zM512.496324 817.685098c17.289484 0 31.753501-5.814426 43.387957-17.453511 11.639573-11.633968 17.454243-25.761734 17.454243-42.387389 0-17.287735-5.81467-31.747051-17.454243-43.386136-11.634456-11.633968-26.098473-17.453511-43.387957-17.453511-17.283344 0-31.747361 5.819542-43.381817 17.453511-11.639573 11.639085-17.454243 26.098401-17.454243 43.386136 0 16.625656 5.81467 30.753421 17.454243 42.387389C480.748964 811.870672 495.212981 817.685098 512.496324 817.685098zM511.503676 65.687048c61.834849 0 119.851582 11.799744 174.04099 35.403325 54.194524 23.604604 101.570473 55.522548 142.127847 95.746668 40.56249 40.225143 72.476657 87.433328 95.750687 141.625578 23.27403 54.187133 34.908486 112.201431 34.908486 174.033685 0 61.838394-11.634456 119.6818-34.908486 173.543521-23.27403 53.855582-55.188196 101.063767-95.750687 141.619438-40.557374 40.560788-87.933322 72.473615-142.127847 95.746668-54.189408 23.273053-112.206141 34.907021-174.04099 34.907021-61.840989 0-119.686823-11.633968-173.550806-34.907021-53.857842-23.273053-101.068009-55.18588-141.625382-95.746668-40.56249-40.555671-72.476657-87.763856-95.750687-141.619438C77.302771 632.17708 65.668315 574.333674 65.668315 512.496304c0-61.832254 11.634456-119.846552 34.908486-174.033685 23.27403-54.19225 55.188196-101.400435 95.750687-141.625578 40.557374-40.22412 87.76754-72.142064 141.625382-95.746668C391.816852 77.486792 449.662687 65.687048 511.503676 65.687048z" p-id="3524" fill="#FF9900"></path></svg>